<?xml version="1.0" encoding="UTF-8" standalone="no"?><svg xmlns="http://www.w3.org/2000/svg" xmlns:xlink="http://www.w3.org/1999/xlink" contentScriptType="application/ecmascript" contentStyleType="text/css" height="172px" preserveAspectRatio="none" style="width:1130px;height:172px;background:#FFFFFF;" version="1.1" viewBox="0 0 1130 172" width="1130px" zoomAndPan="magnify"><defs><filter height="300%" id="f78f6by0b3p6j" width="300%" x="-1" y="-1"><feGaussianBlur result="blurOut" stdDeviation="2.0"/><feColorMatrix in="blurOut" result="blurOut2" type="matrix" values="0 0 0 0 0 0 0 0 0 0 0 0 0 0 0 0 0 0 .4 0"/><feOffset dx="4.0" dy="4.0" in="blurOut2" result="blurOut3"/><feBlend in="SourceGraphic" in2="blurOut3" mode="normal"/></filter></defs><g><!--MD5=[e7ec717693df2b55ad6572a1b28c4519]
class Cluster_EKS--><rect codeLine="9" fill="#FEFECE" filter="url(#f78f6by0b3p6j)" height="67.6719" id="Cluster_EKS" style="stroke:#A80036;stroke-width:1.5;" width="131" x="7" y="39.3564"/><ellipse cx="34.6" cy="55.3564" fill="#ADD1B2" rx="11" ry="11" style="stroke:#A80036;stroke-width:1.0;"/><path d="M37.3656,51.2314 Q37.5219,51.0127 37.7094,50.9033 Q37.8969,50.7939 38.1156,50.7939 Q38.4906,50.7939 38.725,51.0596 Q38.9594,51.3096 38.9594,51.9189 L38.9594,53.3721 Q38.9594,53.9814 38.725,54.2471 Q38.4906,54.5127 38.1156,54.5127 Q37.7719,54.5127 37.5688,54.3096 Q37.3656,54.1221 37.2563,53.6064 Q37.2094,53.2471 37.0219,53.0596 Q36.6938,52.6846 36.0844,52.4658 Q35.475,52.2471 34.85,52.2471 Q34.0844,52.2471 33.4438,52.5752 Q32.8188,52.9033 32.3188,53.6533 Q31.8344,54.4033 31.8344,55.4346 L31.8344,56.5283 Q31.8344,57.7627 32.725,58.5908 Q33.6156,59.4033 35.2094,59.4033 Q36.1469,59.4033 36.8031,59.1533 Q37.1938,58.9971 37.6156,58.5596 Q37.8813,58.2939 38.0219,58.2158 Q38.1781,58.1377 38.3813,58.1377 Q38.7094,58.1377 38.9594,58.4033 Q39.225,58.6533 39.225,58.9971 Q39.225,59.3408 38.8813,59.7471 Q38.3813,60.3252 37.5844,60.6533 Q36.5063,61.1064 35.2094,61.1064 Q33.6938,61.1064 32.4906,60.4814 Q31.5063,59.9814 30.8188,58.9189 Q30.1313,57.8408 30.1313,56.5596 L30.1313,55.4033 Q30.1313,54.0752 30.7406,52.9346 Q31.3656,51.7783 32.4594,51.1689 Q33.5531,50.5439 34.7875,50.5439 Q35.5219,50.5439 36.1625,50.7158 Q36.8188,50.8721 37.3656,51.2314 Z " fill="#000000"/><text fill="#000000" font-family="sans-serif" font-size="12" lengthAdjust="spacing" textLength="71" x="51.4" y="60.2666">Cluster_EKS</text><line style="stroke:#A80036;stroke-width:1.5;" x1="8" x2="137" y1="71.3564" y2="71.3564"/><text fill="#000000" font-family="sans-serif" font-size="11" lengthAdjust="spacing" textLength="38" x="13" y="86.7754">Version</text><text fill="#000000" font-family="sans-serif" font-size="11" lengthAdjust="spacing" textLength="47" x="13" y="100.6113">CNI Plugin</text><!--MD5=[3fee75583bb7a64f68d843a3c9534ab3]
class Node--><rect codeLine="13" fill="#FEFECE" filter="url(#f78f6by0b3p6j)" height="53.8359" id="Node" style="stroke:#A80036;stroke-width:1.5;" width="131" x="221" y="46.3564"/><ellipse cx="267.25" cy="62.3564" fill="#ADD1B2" rx="11" ry="11" style="stroke:#A80036;stroke-width:1.0;"/><path d="M270.0156,58.2314 Q270.1719,58.0127 270.3594,57.9033 Q270.5469,57.7939 270.7656,57.7939 Q271.1406,57.7939 271.375,58.0596 Q271.6094,58.3096 271.6094,58.9189 L271.6094,60.3721 Q271.6094,60.9814 271.375,61.2471 Q271.1406,61.5127 270.7656,61.5127 Q270.4219,61.5127 270.2188,61.3096 Q270.0156,61.1221 269.9063,60.6064 Q269.8594,60.2471 269.6719,60.0596 Q269.3438,59.6846 268.7344,59.4658 Q268.125,59.2471 267.5,59.2471 Q266.7344,59.2471 266.0938,59.5752 Q265.4688,59.9033 264.9688,60.6533 Q264.4844,61.4033 264.4844,62.4346 L264.4844,63.5283 Q264.4844,64.7627 265.375,65.5908 Q266.2656,66.4033 267.8594,66.4033 Q268.7969,66.4033 269.4531,66.1533 Q269.8438,65.9971 270.2656,65.5596 Q270.5313,65.2939 270.6719,65.2158 Q270.8281,65.1377 271.0313,65.1377 Q271.3594,65.1377 271.6094,65.4033 Q271.875,65.6533 271.875,65.9971 Q271.875,66.3408 271.5313,66.7471 Q271.0313,67.3252 270.2344,67.6533 Q269.1563,68.1064 267.8594,68.1064 Q266.3438,68.1064 265.1406,67.4814 Q264.1563,66.9814 263.4688,65.9189 Q262.7813,64.8408 262.7813,63.5596 L262.7813,62.4033 Q262.7813,61.0752 263.3906,59.9346 Q264.0156,58.7783 265.1094,58.1689 Q266.2031,57.5439 267.4375,57.5439 Q268.1719,57.5439 268.8125,57.7158 Q269.4688,57.8721 270.0156,58.2314 Z " fill="#000000"/><text fill="#000000" font-family="sans-serif" font-size="12" lengthAdjust="spacing" textLength="30" x="287.75" y="67.2666">Node</text><line style="stroke:#A80036;stroke-width:1.5;" x1="222" x2="351" y1="78.3564" y2="78.3564"/><text fill="#000000" font-family="sans-serif" font-size="11" lengthAdjust="spacing" textLength="15" x="227" y="93.7754">OS</text><!--MD5=[fb81705e853334739c2e705ed9b04856]
class Instance_Type--><rect codeLine="17" fill="#FEFECE" filter="url(#f78f6by0b3p6j)" height="53.8359" id="Instance_Type" style="stroke:#A80036;stroke-width:1.5;" width="131" x="435" y="46.3564"/><ellipse cx="458.55" cy="62.3564" fill="#ADD1B2" rx="11" ry="11" style="stroke:#A80036;stroke-width:1.0;"/><path d="M461.3156,58.2314 Q461.4719,58.0127 461.6594,57.9033 Q461.8469,57.7939 462.0656,57.7939 Q462.4406,57.7939 462.675,58.0596 Q462.9094,58.3096 462.9094,58.9189 L462.9094,60.3721 Q462.9094,60.9814 462.675,61.2471 Q462.4406,61.5127 462.0656,61.5127 Q461.7219,61.5127 461.5188,61.3096 Q461.3156,61.1221 461.2063,60.6064 Q461.1594,60.2471 460.9719,60.0596 Q460.6438,59.6846 460.0344,59.4658 Q459.425,59.2471 458.8,59.2471 Q458.0344,59.2471 457.3938,59.5752 Q456.7688,59.9033 456.2688,60.6533 Q455.7844,61.4033 455.7844,62.4346 L455.7844,63.5283 Q455.7844,64.7627 456.675,65.5908 Q457.5656,66.4033 459.1594,66.4033 Q460.0969,66.4033 460.7531,66.1533 Q461.1438,65.9971 461.5656,65.5596 Q461.8313,65.2939 461.9719,65.2158 Q462.1281,65.1377 462.3313,65.1377 Q462.6594,65.1377 462.9094,65.4033 Q463.175,65.6533 463.175,65.9971 Q463.175,66.3408 462.8313,66.7471 Q462.3313,67.3252 461.5344,67.6533 Q460.4563,68.1064 459.1594,68.1064 Q457.6438,68.1064 456.4406,67.4814 Q455.4563,66.9814 454.7688,65.9189 Q454.0813,64.8408 454.0813,63.5596 L454.0813,62.4033 Q454.0813,61.0752 454.6906,59.9346 Q455.3156,58.7783 456.4094,58.1689 Q457.5031,57.5439 458.7375,57.5439 Q459.4719,57.5439 460.1125,57.7158 Q460.7688,57.8721 461.3156,58.2314 Z " fill="#000000"/><text fill="#000000" font-family="sans-serif" font-size="12" lengthAdjust="spacing" textLength="80" x="474.45" y="67.2666">Instance_Type</text><line style="stroke:#A80036;stroke-width:1.5;" x1="436" x2="565" y1="78.3564" y2="78.3564"/><text fill="#000000" font-family="sans-serif" font-size="11" lengthAdjust="spacing" textLength="71" x="441" y="93.7754">IP address limit</text><!--MD5=[76a8c04b4e7dffa6abd8c0f58e919cdd]
class Pod--><rect codeLine="21" fill="#FEFECE" filter="url(#f78f6by0b3p6j)" height="67.6719" id="Pod" style="stroke:#A80036;stroke-width:1.5;" width="131" x="985" y="90.3564"/><ellipse cx="1035.25" cy="106.3564" fill="#ADD1B2" rx="11" ry="11" style="stroke:#A80036;stroke-width:1.0;"/><path d="M1038.0156,102.2314 Q1038.1719,102.0127 1038.3594,101.9033 Q1038.5469,101.7939 1038.7656,101.7939 Q1039.1406,101.7939 1039.375,102.0596 Q1039.6094,102.3096 1039.6094,102.9189 L1039.6094,104.3721 Q1039.6094,104.9814 1039.375,105.2471 Q1039.1406,105.5127 1038.7656,105.5127 Q1038.4219,105.5127 1038.2188,105.3096 Q1038.0156,105.1221 1037.9063,104.6064 Q1037.8594,104.2471 1037.6719,104.0596 Q1037.3438,103.6846 1036.7344,103.4658 Q1036.125,103.2471 1035.5,103.2471 Q1034.7344,103.2471 1034.0938,103.5752 Q1033.4688,103.9033 1032.9688,104.6533 Q1032.4844,105.4033 1032.4844,106.4346 L1032.4844,107.5283 Q1032.4844,108.7627 1033.375,109.5908 Q1034.2656,110.4033 1035.8594,110.4033 Q1036.7969,110.4033 1037.4531,110.1533 Q1037.8438,109.9971 1038.2656,109.5596 Q1038.5313,109.2939 1038.6719,109.2158 Q1038.8281,109.1377 1039.0313,109.1377 Q1039.3594,109.1377 1039.6094,109.4033 Q1039.875,109.6533 1039.875,109.9971 Q1039.875,110.3408 1039.5313,110.7471 Q1039.0313,111.3252 1038.2344,111.6533 Q1037.1563,112.1064 1035.8594,112.1064 Q1034.3438,112.1064 1033.1406,111.4814 Q1032.1563,110.9814 1031.4688,109.9189 Q1030.7813,108.8408 1030.7813,107.5596 L1030.7813,106.4033 Q1030.7813,105.0752 1031.3906,103.9346 Q1032.0156,102.7783 1033.1094,102.1689 Q1034.2031,101.5439 1035.4375,101.5439 Q1036.1719,101.5439 1036.8125,101.7158 Q1037.4688,101.8721 1038.0156,102.2314 Z " fill="#000000"/><text fill="#000000" font-family="sans-serif" font-size="12" lengthAdjust="spacing" textLength="22" x="1055.75" y="111.2666">Pod</text><line style="stroke:#A80036;stroke-width:1.5;" x1="986" x2="1115" y1="122.3564" y2="122.3564"/><text fill="#000000" font-family="sans-serif" font-size="11" lengthAdjust="spacing" textLength="53" x="991" y="137.7754">IP Address</text><text fill="#000000" font-family="sans-serif" font-size="11" lengthAdjust="spacing" textLength="46" x="991" y="151.6113">Container</text><!--MD5=[02b16253912cf6fdde797f6b7e22c4fe]
class ENI--><rect codeLine="25" fill="#FEFECE" filter="url(#f78f6by0b3p6j)" height="67.6719" id="ENI" style="stroke:#A80036;stroke-width:1.5;" width="131" x="679" y="32.3564"/><ellipse cx="730.25" cy="48.3564" fill="#ADD1B2" rx="11" ry="11" style="stroke:#A80036;stroke-width:1.0;"/><path d="M733.0156,44.2314 Q733.1719,44.0127 733.3594,43.9033 Q733.5469,43.7939 733.7656,43.7939 Q734.1406,43.7939 734.375,44.0596 Q734.6094,44.3096 734.6094,44.9189 L734.6094,46.3721 Q734.6094,46.9814 734.375,47.2471 Q734.1406,47.5127 733.7656,47.5127 Q733.4219,47.5127 733.2188,47.3096 Q733.0156,47.1221 732.9063,46.6064 Q732.8594,46.2471 732.6719,46.0596 Q732.3438,45.6846 731.7344,45.4658 Q731.125,45.2471 730.5,45.2471 Q729.7344,45.2471 729.0938,45.5752 Q728.4688,45.9033 727.9688,46.6533 Q727.4844,47.4033 727.4844,48.4346 L727.4844,49.5283 Q727.4844,50.7627 728.375,51.5908 Q729.2656,52.4033 730.8594,52.4033 Q731.7969,52.4033 732.4531,52.1533 Q732.8438,51.9971 733.2656,51.5596 Q733.5313,51.2939 733.6719,51.2158 Q733.8281,51.1377 734.0313,51.1377 Q734.3594,51.1377 734.6094,51.4033 Q734.875,51.6533 734.875,51.9971 Q734.875,52.3408 734.5313,52.7471 Q734.0313,53.3252 733.2344,53.6533 Q732.1563,54.1064 730.8594,54.1064 Q729.3438,54.1064 728.1406,53.4814 Q727.1563,52.9814 726.4688,51.9189 Q725.7813,50.8408 725.7813,49.5596 L725.7813,48.4033 Q725.7813,47.0752 726.3906,45.9346 Q727.0156,44.7783 728.1094,44.1689 Q729.2031,43.5439 730.4375,43.5439 Q731.1719,43.5439 731.8125,43.7158 Q732.4688,43.8721 733.0156,44.2314 Z " fill="#000000"/><text fill="#000000" font-family="sans-serif" font-size="12" lengthAdjust="spacing" textLength="20" x="750.75" y="53.2666">ENI</text><line style="stroke:#A80036;stroke-width:1.5;" x1="680" x2="809" y1="64.3564" y2="64.3564"/><text fill="#000000" font-family="sans-serif" font-size="11" lengthAdjust="spacing" textLength="94" x="685" y="79.7754">Principal IP address</text><text fill="#000000" font-family="sans-serif" font-size="11" lengthAdjust="spacing" textLength="119" x="685" y="93.6113">Secondary IP addresses</text><!--MD5=[aa6832b721aac4e05479f6832311cd55]
link Cluster_EKS to Node--><path codeLine="32" d="M138.26,73.3564 C162.7,73.3564 190.61,73.3564 215.51,73.3564 " fill="none" id="Cluster_EKS-to-Node" style="stroke:#A80036;stroke-width:1.0;"/><polygon fill="#A80036" points="220.77,73.3564,211.77,69.3564,215.77,73.3564,211.77,77.3564,220.77,73.3564" style="stroke:#A80036;stroke-width:1.0;"/><text fill="#000000" font-family="sans-serif" font-size="13" lengthAdjust="spacing" textLength="21" x="169" y="69.8516">has</text><text fill="#000000" font-family="sans-serif" font-size="13" lengthAdjust="spacing" textLength="7" x="145.8353" y="87.7637">1</text><text fill="#000000" font-family="sans-serif" font-size="13" lengthAdjust="spacing" textLength="20" x="192.9603" y="87.7031">1..*</text><!--MD5=[a1226ff9b14ce7ff0ec3866ed1f116dd]
link Node to Pod--><path codeLine="34" d="M352.28,97.5064 C377.69,105.8164 407.35,114.0964 435,118.3564 C630.59,148.5064 865.36,138.1164 979.85,130.1064 " fill="none" id="Node-to-Pod" style="stroke:#A80036;stroke-width:1.0;"/><polygon fill="#A80036" points="984.87,129.7464,975.6072,126.3997,979.8828,130.1037,976.1788,134.3793,984.87,129.7464" style="stroke:#A80036;stroke-width:1.0;"/><text fill="#000000" font-family="sans-serif" font-size="13" lengthAdjust="spacing" textLength="25" x="610" y="130.8516">runs</text><text fill="#000000" font-family="sans-serif" font-size="13" lengthAdjust="spacing" textLength="7" x="359.8575" y="114.5462">1</text><text fill="#000000" font-family="sans-serif" font-size="13" lengthAdjust="spacing" textLength="20" x="957.0707" y="144.6575">1..*</text><!--MD5=[6ff55bdd7e01c7302c6c61d790c9b5d0]
link Node to ENI--><path codeLine="35" d="M352.26,49.0664 C377.67,40.7364 407.33,32.4864 435,28.3564 C516.76,16.1564 611.14,32.1664 673.76,46.9964 " fill="none" id="Node-to-ENI" style="stroke:#A80036;stroke-width:1.0;"/><polygon fill="#A80036" points="678.97,48.2364,671.142,42.2596,674.1061,47.0777,669.288,50.0418,678.97,48.2364" style="stroke:#A80036;stroke-width:1.0;"/><text fill="#000000" font-family="sans-serif" font-size="13" lengthAdjust="spacing" textLength="21" x="490" y="20.8516">has</text><text fill="#000000" font-family="sans-serif" font-size="13" lengthAdjust="spacing" textLength="7" x="359.8353" y="60.808">1</text><text fill="#000000" font-family="sans-serif" font-size="13" lengthAdjust="spacing" textLength="20" x="651.181" y="60.723">1..*</text><!--MD5=[ef76231b2e33749bdc88dabd7722f524]
link Node to Instance_Type--><path codeLine="36" d="M352.26,73.3564 C376.7,73.3564 404.61,73.3564 429.51,73.3564 " fill="none" id="Node-to-Instance_Type" style="stroke:#A80036;stroke-width:1.0;"/><polygon fill="#A80036" points="434.77,73.3564,425.77,69.3564,429.77,73.3564,425.77,77.3564,434.77,73.3564" style="stroke:#A80036;stroke-width:1.0;"/><text fill="#000000" font-family="sans-serif" font-size="13" lengthAdjust="spacing" textLength="21" x="383" y="69.8516">has</text><text fill="#000000" font-family="sans-serif" font-size="13" lengthAdjust="spacing" textLength="7" x="359.8353" y="87.7548">1</text><text fill="#000000" font-family="sans-serif" font-size="13" lengthAdjust="spacing" textLength="7" x="420.198" y="87.7548">1</text><!--MD5=[de378cadbcb3c49fc43e48a47b4b115f]
link ENI to Pod--><path codeLine="38" d="M810.34,78.7264 C860.08,88.2164 928.61,101.2964 979.57,111.0164 " fill="none" id="ENI-to-Pod" style="stroke:#A80036;stroke-width:1.0;"/><polygon fill="#A80036" points="984.76,112.0064,976.6592,106.405,979.8469,111.0781,975.1738,114.2659,984.76,112.0064" style="stroke:#A80036;stroke-width:1.0;"/><text fill="#000000" font-family="sans-serif" font-size="13" lengthAdjust="spacing" textLength="113" x="841" y="80.8516">provides IP address</text><text fill="#000000" font-family="sans-serif" font-size="13" lengthAdjust="spacing" textLength="7" x="817.9241" y="94.4867">1</text><text fill="#000000" font-family="sans-serif" font-size="13" lengthAdjust="spacing" textLength="20" x="956.9493" y="125.088">1..*</text><!--MD5=[4b8256564cc7ebafc7f0c9b16a587ad7]
link Instance_Type to ENI--><path codeLine="40" d="M566.03,71.4864 C599.13,70.5364 639.49,69.3664 673.35,68.3864 " fill="none" id="Instance_Type-to-ENI" style="stroke:#A80036;stroke-width:1.0;"/><polygon fill="#A80036" points="678.73,68.2264,669.6194,64.4851,673.732,68.3692,669.8479,72.4819,678.73,68.2264" style="stroke:#A80036;stroke-width:1.0;"/><text fill="#000000" font-family="sans-serif" font-size="13" lengthAdjust="spacing" textLength="51" x="597" y="65.8516">can have</text><text fill="#000000" font-family="sans-serif" font-size="13" lengthAdjust="spacing" textLength="7" x="574.0116" y="85.7202">1</text><text fill="#000000" font-family="sans-serif" font-size="13" lengthAdjust="spacing" textLength="20" x="650.9162" y="82.7745">2..*</text><!--MD5=[222b56f134af60d3c3d4b4b5ee410c0a]
@startuml


skinparam SameClassWidth true
skinparam classAttributeIconSize 0
hide methods
left to right direction


class Cluster_EKS {
    Version
    CNI Plugin
}
class Node {
    OS
}

class Instance_Type{
    IP address limit
}

class Pod {
    IP Address
    Container
}
class ENI {
    Principal IP address
    Secondary IP addresses
}



Cluster_EKS "1" - -> "1..*" Node: has

Node "1" - -> "1..*" Pod: runs
Node "1" - -> "1..*" ENI: has
Node "1" - -> "1" Instance_Type: has 

ENI "1" - -> "1..*" Pod: provides IP address 

Instance_Type "1" - -> "2..*" ENI: can have
@enduml

PlantUML version 1.2022.0(Tue Jan 11 16:16:42 GMT 2022)
(GPL source distribution)
Java Runtime: Java(TM) SE Runtime Environment
JVM: Java HotSpot(TM) 64-Bit Server VM
Default Encoding: Cp1252
Language: en
Country: GB
--></g></svg>